<?xml version="1.0" encoding="UTF-8"?>
<svg width="280px" height="356px" viewBox="0 0 280 356" version="1.1" xmlns="http://www.w3.org/2000/svg" xmlns:xlink="http://www.w3.org/1999/xlink">
    <title>EnchantedRealmsLogoWhite</title>
    <g id="Page-1" stroke="none" stroke-width="1" fill="none" fill-rule="evenodd">
        <g id="EnchantedRealmsLogoWhite" transform="translate(0.8232, 0.8593)" fill="#FFFFFF" fill-rule="nonzero">
            <g id="Group">
                <g transform="translate(87.6931, 177.1853) scale(-1, 1) rotate(-180) translate(-87.6931, -177.1853)translate(0, 0)" id="Path">
                    <path d="M119.952152,337.232857 C121.250095,337.990283 123.587798,338.421758 127.705335,336.97022 C127.786002,336.944425 127.851896,336.888146 127.877456,336.808417 C128.254997,335.713314 131.491997,327.245618 139.396196,333.595804 C141.395051,335.199765 143.849065,336.128374 146.410947,336.027541 C152.329424,335.795388 163.117001,334.454064 172.463124,328.321961 C171.881336,329.356094 147.149379,372.269092 86.1864226,345.712278 C86.1864226,345.712278 123.466094,295.494689 142.827595,227.922193 C138.940099,225.892384 130.790381,224.128965 117.811427,232.898928 C98.6935685,245.837549 63.9312255,269.27555 32.3976753,330.179179 C32.3976753,330.179179 -69.8421927,177.214974 88.9262886,56.644924 C86.3925457,59.3095163 -13.8578006,165.701627 34.2947581,287.078582 C34.2947581,287.078582 100.044742,192.802476 147.80433,208.333464 C157.080573,166.074478 158.039666,118.695948 138.826602,73.2639794 C138.826602,73.2639794 133.437621,142.036633 71.4606981,182.734805 C73.1516578,181.12076 131.44627,124.027947 121.962028,0 C121.962028,0 243.95407,130.089232 119.250536,334.177357 C118.614814,335.218525 118.899729,336.618474 119.952152,337.232857"></path>
                </g>
                <g transform="translate(224.2993, 160.9887) scale(-1, 1) rotate(-180) translate(-224.2993, -160.9887)translate(169.4468, 24.1914)" id="Path">
                    <path d="M76.4981656,273.594755 C50.8748843,219.076487 0,183.386004 0,183.386004 L5.94028463,162.057774 C48.081084,187.58585 74.6855018,230.759141 74.6855018,230.759141 C123.622735,102.695965 19.5036062,0 19.5036062,0 C180.884622,118.312076 76.4981656,273.594755 76.4981656,273.594755"></path>
                </g>
            </g>
        </g>
    </g>
</svg>