<?xml version="1.0" standalone="no"?>
<!DOCTYPE svg PUBLIC "-//W3C//DTD SVG 20010904//EN"
 "http://www.w3.org/TR/2001/REC-SVG-20010904/DTD/svg10.dtd">
<svg version="1.0" xmlns="http://www.w3.org/2000/svg"
 width="712.000000pt" height="712.000000pt" viewBox="0 0 712.000000 712.000000"
 preserveAspectRatio="xMidYMid meet">
<metadata>
Created by potrace 1.14, written by Peter Selinger 2001-2017
</metadata>
<g transform="translate(0.000000,712.000000) scale(0.100000,-0.100000)"
fill="#000000" stroke="none">
<path d="M3177 7104 c-1 -1 -29 -5 -62 -8 -99 -9 -148 -16 -190 -28 -22 -6
-53 -12 -69 -15 -37 -6 -271 -85 -318 -107 l-35 -17 92 -137 c88 -132 265
-417 265 -427 0 -3 12 -24 26 -47 67 -106 282 -528 376 -739 53 -117 187 -441
193 -464 2 -9 6 -22 22 -62 3 -10 7 -21 8 -25 2 -5 4 -10 5 -13 1 -3 3 -8 5
-12 1 -5 5 -15 8 -23 3 -8 24 -71 47 -140 22 -69 45 -139 50 -157 6 -18 13
-40 15 -50 2 -10 7 -28 10 -39 6 -19 0 -24 -39 -37 -88 -30 -223 -9 -346 53
-39 19 -295 189 -332 219 -7 6 -67 52 -133 103 -66 50 -127 99 -135 107 -8 9
-42 39 -75 66 -152 127 -430 426 -560 600 -17 22 -34 45 -40 52 -106 129 -322
461 -435 668 -24 44 -48 86 -54 94 -5 7 -11 19 -12 26 -2 16 -34 65 -43 65
-17 0 -210 -370 -281 -540 -51 -123 -120 -301 -125 -321 -2 -8 -14 -49 -28
-90 -28 -81 -80 -265 -97 -344 -7 -27 -14 -59 -16 -70 -3 -11 -9 -42 -14 -70
-6 -27 -12 -61 -15 -75 -6 -27 -10 -52 -20 -120 -4 -25 -9 -54 -11 -64 -3 -18
-8 -64 -19 -171 -22 -211 -21 -645 1 -758 2 -11 6 -45 10 -76 3 -31 7 -63 9
-71 1 -8 6 -40 11 -70 4 -30 8 -57 9 -60 1 -3 5 -23 9 -45 7 -31 65 -266 80
-320 2 -5 6 -23 11 -40 4 -16 10 -34 14 -40 3 -5 6 -14 7 -20 3 -13 52 -153
64 -180 5 -11 28 -65 51 -120 81 -190 195 -398 323 -590 69 -104 189 -270 205
-285 4 -3 18 -21 33 -42 15 -20 33 -42 40 -50 8 -7 38 -42 68 -78 30 -36 132
-142 225 -235 173 -174 305 -292 477 -428 16 -12 40 -32 55 -44 39 -32 40 -21
1 20 -29 31 -60 67 -120 141 -72 88 -168 218 -168 226 0 6 -4 10 -8 10 -4 0
-15 12 -24 28 -9 15 -24 36 -33 47 -8 11 -39 56 -68 100 -28 44 -54 82 -57 85
-3 3 -12 16 -20 30 -8 14 -48 81 -90 150 -41 69 -86 148 -100 175 -14 28 -28
52 -31 55 -9 7 -149 297 -194 400 -71 163 -194 497 -210 570 -2 8 -13 51 -25
95 -12 44 -24 91 -26 104 -3 14 -7 28 -9 31 -2 4 -7 22 -10 41 -3 19 -10 50
-15 69 -5 19 -12 52 -16 74 -3 21 -8 48 -10 60 -2 11 -7 37 -10 56 -3 19 -7
46 -10 60 -2 14 -7 50 -10 80 -3 30 -7 66 -10 80 -18 102 -25 546 -11 710 15
172 17 189 27 215 7 19 7 24 -2 19 -6 -4 -8 -3 -5 3 3 5 9 25 12 44 3 19 8 45
10 59 12 58 15 77 20 105 3 17 17 75 31 130 14 55 28 107 29 115 2 8 4 15 5
15 1 0 3 9 6 20 2 11 17 61 34 110 17 50 32 97 34 105 7 26 39 105 46 113 4 5
23 -13 41 -40 18 -26 35 -50 39 -53 3 -3 30 -38 60 -77 30 -40 58 -73 62 -73
5 0 8 -5 8 -11 0 -6 6 -16 13 -23 6 -7 23 -27 37 -45 119 -154 399 -455 585
-629 260 -244 570 -463 760 -538 17 -7 55 -22 85 -34 77 -31 166 -54 255 -65
87 -12 243 -3 294 17 13 5 28 5 32 1 7 -9 29 -111 53 -258 13 -80 18 -112 32
-205 2 -14 6 -52 10 -85 3 -33 7 -71 10 -85 22 -123 26 -900 4 -900 -3 0 -5
-13 -4 -30 0 -16 -3 -55 -7 -87 -5 -32 -11 -78 -14 -103 -9 -72 -12 -89 -35
-195 -11 -55 -23 -111 -26 -125 -6 -29 -34 -135 -63 -236 -22 -77 -41 -133
-99 -284 l-36 -95 -18 100 c-9 55 -20 116 -23 135 -3 19 -9 42 -12 50 -3 8 -7
24 -8 35 -2 11 -15 61 -29 110 -90 319 -230 628 -404 895 -40 63 -161 227
-183 250 -8 8 -32 38 -54 65 -109 136 -356 361 -540 491 l-70 49 55 -65 c30
-36 57 -67 60 -70 41 -37 214 -295 303 -450 33 -58 141 -272 161 -320 11 -25
32 -72 47 -106 95 -211 245 -702 284 -934 3 -19 10 -54 16 -78 9 -40 14 -75
25 -152 2 -19 6 -46 9 -60 9 -47 18 -122 30 -255 4 -38 8 -86 11 -105 23 -209
22 -1003 -2 -1042 -3 -4 -2 -8 3 -8 11 1 132 156 228 291 62 90 273 441 280
469 1 3 31 66 67 140 36 74 83 176 103 225 20 50 42 101 48 115 5 14 11 30 13
35 1 6 25 74 53 153 28 78 51 144 51 147 0 3 2 10 5 17 4 12 42 153 61 223 4
17 8 32 9 35 3 12 16 67 19 85 3 11 10 43 16 70 12 50 13 58 25 125 3 19 10
58 15 85 6 28 12 68 16 90 3 22 7 51 9 64 3 14 7 52 11 85 3 34 8 72 9 86 12
109 16 157 21 240 7 122 7 524 0 615 -13 167 -17 213 -22 255 -2 25 -7 63 -9
85 -4 49 -12 109 -26 195 -19 124 -29 182 -34 200 -2 8 -6 32 -10 54 -3 21 -7
41 -9 45 -2 3 -7 23 -10 43 -16 102 -89 382 -154 588 -20 63 -37 117 -37 120
-1 3 -4 12 -8 20 -3 8 -21 60 -40 115 -40 115 -91 248 -149 385 -37 90 -46
109 -85 198 -35 79 -224 461 -266 537 -63 113 -97 174 -134 239 -18 31 -33 60
-33 66 0 5 -4 10 -8 10 -4 0 -18 19 -30 43 -12 23 -30 56 -40 72 -9 17 -18 36
-19 43 -5 21 46 45 90 44 61 -3 90 -18 112 -58 26 -48 62 -72 105 -69 41 3 85
19 95 35 17 27 103 57 157 54 166 -7 306 -43 449 -115 67 -33 67 -31 -2 56
-57 72 -151 162 -216 206 -26 18 -50 35 -53 38 -14 16 -150 84 -221 110 -73
27 -209 58 -293 67 -63 6 -195 11 -199 8z"/>
<path d="M5673 6570 c-10 -22 -21 -40 -25 -40 -5 0 -8 -6 -8 -13 0 -8 -28 -63
-61 -123 -34 -60 -67 -118 -73 -129 -66 -118 -328 -479 -421 -581 -5 -6 -30
-35 -55 -64 -149 -176 -445 -468 -624 -615 -27 -22 -58 -48 -70 -58 -11 -10
-54 -44 -93 -74 -40 -31 -73 -61 -73 -67 0 -6 5 -27 11 -46 5 -19 12 -42 14
-50 2 -8 17 -64 35 -125 35 -124 34 -119 44 -162 4 -18 10 -33 12 -33 9 0 208
134 234 158 14 12 28 22 31 22 6 0 68 47 109 83 8 7 37 31 65 53 160 127 435
406 612 619 100 122 211 268 276 368 21 31 41 57 45 57 7 0 69 -169 77 -207 2
-10 8 -31 14 -46 19 -48 73 -255 86 -327 2 -14 7 -36 10 -50 3 -14 8 -38 10
-55 3 -16 7 -43 11 -58 3 -16 7 -38 9 -50 2 -12 5 -38 8 -57 16 -101 25 -209
32 -363 2 -65 7 -122 10 -127 3 -5 1 -11 -4 -14 -6 -4 -6 -18 -1 -35 4 -16 6
-31 4 -34 -2 -2 -6 -62 -9 -133 -3 -71 -7 -151 -10 -179 -3 -27 -8 -72 -11
-100 -15 -147 -51 -338 -101 -540 -14 -55 -26 -107 -28 -115 -2 -8 -14 -46
-26 -85 -13 -38 -23 -72 -24 -75 -9 -36 -72 -216 -85 -245 -5 -11 -25 -60 -45
-110 -20 -49 -45 -108 -55 -130 -53 -115 -104 -221 -109 -225 -3 -3 -7 -11 -9
-18 -1 -8 -33 -68 -71 -135 -38 -67 -77 -138 -87 -157 -11 -19 -22 -36 -26
-38 -5 -2 -8 -8 -8 -14 0 -6 -11 -26 -25 -44 -14 -18 -25 -36 -25 -40 0 -4
-11 -22 -25 -40 -14 -18 -25 -37 -25 -42 0 -5 -9 -17 -20 -27 -11 -10 -20 -24
-20 -32 0 -7 -4 -13 -8 -13 -5 0 -17 -16 -28 -35 -10 -19 -22 -35 -26 -35 -5
0 -8 -4 -8 -10 0 -9 -150 -214 -182 -250 -8 -8 -30 -35 -49 -60 -18 -24 -41
-52 -49 -61 -8 -8 -30 -33 -49 -55 -19 -21 -50 -57 -70 -78 -49 -54 -27 -39
126 81 233 182 510 444 673 633 36 41 68 77 71 80 3 3 43 52 88 110 45 58 89
113 96 123 8 9 15 20 15 23 0 2 17 28 38 57 84 115 284 456 297 507 1 3 14 32
29 65 122 263 233 626 271 890 1 11 5 39 9 63 25 170 30 257 30 512 0 241 -7
361 -29 508 -3 17 -7 49 -11 70 -33 224 -102 520 -164 697 -11 33 -22 67 -24
75 -6 23 -59 162 -106 280 -48 120 -189 412 -250 515 -22 39 -46 80 -52 93
-16 31 -26 28 -45 -18z"/>
</g>
</svg>
